<svg width="18.000000" height="18.000000" viewBox="0 0 18 18" fill="none" xmlns="http://www.w3.org/2000/svg" xmlns:xlink="http://www.w3.org/1999/xlink">
	<desc>
			Created with Pixso.
	</desc>
	<defs>
		<clipPath id="clip2_4">
			<rect id="Frame" rx="0.000000" width="17.000000" height="17.000000" transform="translate(0.500000 0.500000)" fill="white" fill-opacity="0"/>
		</clipPath>
	</defs>
	<rect id="Frame" rx="0.000000" width="17.000000" height="17.000000" transform="translate(0.500000 0.500000)" fill="#FFFFFF" fill-opacity="1.000000"/>
	<g clip-path="url(#clip2_4)">
		<path id="Vector" d="M13.49 0L11.16 0C8.54 0 6.84 1.73 6.84 4.42L6.84 6.47L4.5 6.47C4.29 6.47 4.13 6.63 4.13 6.83L4.13 9.79C4.13 10 4.29 10.16 4.5 10.16L6.84 10.16L6.84 17.63C6.84 17.83 7.01 18 7.21 18L10.27 18C10.47 18 10.64 17.83 10.64 17.63L10.64 10.16L13.38 10.16C13.59 10.16 13.75 10 13.75 9.79L13.75 6.83C13.75 6.74 13.71 6.64 13.64 6.57C13.58 6.51 13.48 6.47 13.38 6.47L10.64 6.47L10.64 4.74C10.64 3.9 10.84 3.48 11.92 3.48L13.49 3.48C13.7 3.48 13.86 3.32 13.86 3.11L13.86 0.37C13.86 0.16 13.7 0 13.49 0Z" fill="#3B5998" fill-opacity="1.000000" fill-rule="nonzero"/>
	</g>
</svg>
