<svg width="18.000000" height="18.000000" viewBox="0 0 18 18" fill="none" xmlns="http://www.w3.org/2000/svg" xmlns:xlink="http://www.w3.org/1999/xlink">
	<desc>
			Created with Pixso.
	</desc>
	<defs>
		<clipPath id="clip2_6">
			<rect id="Frame" rx="0.000000" width="17.000000" height="17.000000" transform="translate(0.500000 0.500000)" fill="white" fill-opacity="0"/>
		</clipPath>
	</defs>
	<rect id="Frame" rx="0.000000" width="17.000000" height="17.000000" transform="translate(0.500000 0.500000)" fill="#FFFFFF" fill-opacity="0"/>
	<g clip-path="url(#clip2_6)">
		<path id="XMLID 810" d="M9 18C13.96 18 18 13.96 18 8.99C18 4.03 13.96 0 9 0C4.03 0 0 4.03 0 8.99C0 13.96 4.03 18 9 18ZM9 15.9C7.57 15.9 6.22 15.47 5.06 14.66C5.53 13.88 6.97 11.91 10.04 10.74C10.82 12.84 11.21 14.64 11.37 15.48C10.61 15.76 9.82 15.9 9 15.9ZM13.38 14.32C13.21 13.47 12.85 11.97 12.25 10.21C12.55 10.18 12.87 10.17 13.19 10.17C14.31 10.17 15.24 10.35 15.73 10.48C15.4 11.98 14.57 13.34 13.38 14.32ZM14.65 5.06C15.34 6.05 15.76 7.21 15.86 8.42C15.23 8.31 14.14 8.17 12.91 8.17C12.42 8.17 11.94 8.2 11.49 8.24C11.48 8.21 11.47 8.18 11.45 8.15C11.36 7.93 11.26 7.71 11.15 7.48C12.99 6.66 14.1 5.65 14.65 5.06ZM9 2.11C10.54 2.11 12.04 2.63 13.25 3.59C12.83 4.05 11.88 4.94 10.2 5.64C9.37 4.14 8.51 2.88 8.02 2.18C8.34 2.14 8.67 2.11 9 2.11ZM5.75 2.93C6.15 3.5 7.04 4.79 7.94 6.34C5.52 6.92 3.4 7.05 2.38 7.07C2.9 5.31 4.12 3.8 5.75 2.93ZM8.98 8.25C9.06 8.41 9.13 8.57 9.21 8.72C6.15 9.77 4.25 12.12 3.51 13.18C2.64 12.04 2.15 10.65 2.11 9.21C3.17 9.2 6.01 9.09 8.98 8.25Z" fill="#EA4C89" fill-opacity="1.000000" fill-rule="nonzero"/>
	</g>
</svg>
