<svg width="18.000000" height="17.200073" viewBox="0 0 18 17.2001" fill="none" xmlns="http://www.w3.org/2000/svg" xmlns:xlink="http://www.w3.org/1999/xlink">
	<desc>
			Created with Pixso.
	</desc>
	<defs/>
	<path id="Vector" d="M18 10.54L18 17.2L14.14 17.2L14.14 10.99C14.14 9.43 13.58 8.36 12.18 8.36C11.12 8.36 10.48 9.08 10.2 9.77C10.1 10.02 10.08 10.37 10.08 10.71L10.08 17.2L6.22 17.2C6.22 17.2 6.27 6.68 6.22 5.59L10.07 5.59L10.07 7.23C10.07 7.25 10.06 7.26 10.05 7.27L10.07 7.27L10.07 7.23C10.59 6.44 11.5 5.32 13.55 5.32C16.09 5.32 18 6.98 18 10.54ZM2.18 0C0.86 0 0 0.86 0 2C0 3.11 0.83 4.01 2.13 4.01L2.15 4.01C3.5 4.01 4.34 3.11 4.34 2C4.31 0.86 3.5 0 2.18 0ZM0.22 17.2L4.08 17.2L4.08 5.59L0.22 5.59L0.22 17.2Z" fill="#007BB5" fill-opacity="1.000000" fill-rule="nonzero"/>
</svg>
