<svg width="18.000000" height="18.000000" viewBox="0 0 18 18" fill="none" xmlns="http://www.w3.org/2000/svg" xmlns:xlink="http://www.w3.org/1999/xlink">
	<desc>
			Created with Pixso.
	</desc>
	<defs>
		<clipPath id="clip2_14">
			<rect id="Frame" rx="0.000000" width="17.000000" height="17.000000" transform="translate(0.500000 0.500000)" fill="white" fill-opacity="0"/>
		</clipPath>
	</defs>
	<rect id="Frame" rx="0.000000" width="17.000000" height="17.000000" transform="translate(0.500000 0.500000)" fill="#FFFFFF" fill-opacity="0"/>
	<g clip-path="url(#clip2_14)">
		<path id="Vector" d="M12.37 0L5.62 0C2.51 0 0 2.51 0 5.62L0 12.37C0 15.48 2.51 18 5.62 18L12.37 18C15.48 18 18 15.48 18 12.37L18 5.62C18 2.51 15.48 0 12.37 0ZM16.31 12.37C16.31 14.54 14.54 16.31 12.37 16.31L5.62 16.31C3.45 16.31 1.68 14.54 1.68 12.37L1.68 5.62C1.68 3.45 3.45 1.68 5.62 1.68L12.37 1.68C14.54 1.68 16.31 3.45 16.31 5.62L16.31 12.37Z" fill="#C32AA3" fill-opacity="1.000000" fill-rule="nonzero"/>
		<path id="Vector" d="M9 4.5C6.51 4.5 4.5 6.51 4.5 9C4.5 11.48 6.51 13.5 9 13.5C11.48 13.5 13.5 11.48 13.5 9C13.5 6.51 11.48 4.5 9 4.5ZM9 11.81C7.44 11.81 6.18 10.55 6.18 9C6.18 7.44 7.44 6.18 9 6.18C10.55 6.18 11.81 7.44 11.81 9C11.81 10.55 10.55 11.81 9 11.81Z" fill="#C32AA3" fill-opacity="1.000000" fill-rule="nonzero"/>
		<path id="Vector" d="M14.43 4.16C14.43 4.49 14.16 4.76 13.83 4.76C13.5 4.76 13.23 4.49 13.23 4.16C13.23 3.83 13.5 3.56 13.83 3.56C14.16 3.56 14.43 3.83 14.43 4.16Z" fill="#C32AA3" fill-opacity="1.000000" fill-rule="evenodd"/>
	</g>
</svg>
