<svg width="18.000000" height="14.625000" viewBox="0 0 18 14.625" fill="none" xmlns="http://www.w3.org/2000/svg" xmlns:xlink="http://www.w3.org/1999/xlink">
	<desc>
			Created with Pixso.
	</desc>
	<defs/>
	<path id="Vector" d="M18 1.73C17.33 2.02 16.61 2.21 15.87 2.31C16.63 1.85 17.22 1.13 17.49 0.27C16.78 0.69 15.99 1 15.15 1.16C14.47 0.44 13.51 0 12.46 0C10.41 0 8.77 1.65 8.77 3.69C8.77 3.98 8.79 4.26 8.85 4.53C5.79 4.38 3.07 2.91 1.25 0.67C0.93 1.22 0.74 1.85 0.74 2.53C0.74 3.81 1.4 4.94 2.38 5.6C1.79 5.59 1.21 5.42 0.71 5.15C0.71 5.16 0.71 5.17 0.71 5.19C0.71 6.98 1.99 8.47 3.67 8.81C3.37 8.89 3.04 8.93 2.7 8.93C2.47 8.93 2.23 8.92 2.01 8.87C2.48 10.33 3.84 11.41 5.45 11.44C4.2 12.42 2.6 13.01 0.88 13.01C0.58 13.01 0.29 13 0 12.96C1.63 14.02 3.57 14.62 5.66 14.62C12.45 14.62 16.16 9 16.16 4.12C16.16 3.96 16.15 3.8 16.15 3.64C16.88 3.12 17.49 2.47 18 1.73Z" fill="#489DFF" fill-opacity="1.000000" fill-rule="nonzero"/>
</svg>
